<svg xmlns="http://www.w3.org/2000/svg" xmlns:xlink="http://www.w3.org/1999/xlink" contentScriptType="text/ecmascript" width="187.5" viewBox="0 0 187.5 54.75" height="54.75" version="1.0"><defs><g id="a"><path d="M 9.21875 -5.1875 L 7.015625 -10.875 C 6.953125 -11.050781 6.882812 -11.25 6.8125 -11.46875 C 6.738281 -11.695312 6.671875 -11.9375 6.609375 -12.1875 C 6.472656 -11.65625 6.332031 -11.21875 6.1875 -10.875 L 3.984375 -5.1875 Z M 13.15625 0 L 11.6875 0 C 11.519531 0 11.382812 -0.0390625 11.28125 -0.125 C 11.175781 -0.207031 11.097656 -0.316406 11.046875 -0.453125 L 9.734375 -3.828125 L 3.46875 -3.828125 L 2.15625 -0.453125 C 2.113281 -0.328125 2.035156 -0.21875 1.921875 -0.125 C 1.816406 -0.0390625 1.679688 0 1.515625 0 L 0.0625 0 L 5.65625 -13.984375 L 7.5625 -13.984375 Z M 13.15625 0"/></g><g id="b"><path d="M 7.8125 -7.53125 C 7.488281 -7.96875 7.140625 -8.269531 6.765625 -8.4375 C 6.390625 -8.613281 5.96875 -8.703125 5.5 -8.703125 C 4.582031 -8.703125 3.875 -8.375 3.375 -7.71875 C 2.882812 -7.0625 2.640625 -6.125 2.640625 -4.90625 C 2.640625 -4.257812 2.691406 -3.707031 2.796875 -3.25 C 2.910156 -2.789062 3.070312 -2.410156 3.28125 -2.109375 C 3.5 -1.816406 3.765625 -1.601562 4.078125 -1.46875 C 4.390625 -1.332031 4.742188 -1.265625 5.140625 -1.265625 C 5.710938 -1.265625 6.210938 -1.394531 6.640625 -1.65625 C 7.066406 -1.914062 7.457031 -2.285156 7.8125 -2.765625 Z M 9.546875 -14.375 L 9.546875 0 L 8.515625 0 C 8.265625 0 8.109375 -0.117188 8.046875 -0.359375 L 7.890625 -1.5625 C 7.472656 -1.050781 6.992188 -0.640625 6.453125 -0.328125 C 5.910156 -0.015625 5.285156 0.140625 4.578125 0.140625 C 4.015625 0.140625 3.5 0.03125 3.03125 -0.1875 C 2.570312 -0.40625 2.175781 -0.722656 1.84375 -1.140625 C 1.519531 -1.566406 1.269531 -2.09375 1.09375 -2.71875 C 0.925781 -3.351562 0.84375 -4.082031 0.84375 -4.90625 C 0.84375 -5.632812 0.9375 -6.3125 1.125 -6.9375 C 1.320312 -7.570312 1.601562 -8.117188 1.96875 -8.578125 C 2.332031 -9.035156 2.78125 -9.394531 3.3125 -9.65625 C 3.84375 -9.925781 4.441406 -10.0625 5.109375 -10.0625 C 5.710938 -10.0625 6.226562 -9.957031 6.65625 -9.75 C 7.09375 -9.550781 7.476562 -9.269531 7.8125 -8.90625 L 7.8125 -14.375 Z M 9.546875 -14.375"/></g><g id="c"><path d="M 3.03125 -7.90625 C 3.34375 -8.582031 3.722656 -9.109375 4.171875 -9.484375 C 4.628906 -9.867188 5.1875 -10.0625 5.84375 -10.0625 C 6.050781 -10.0625 6.25 -10.035156 6.4375 -9.984375 C 6.632812 -9.941406 6.804688 -9.875 6.953125 -9.78125 L 6.828125 -8.484375 C 6.785156 -8.316406 6.6875 -8.234375 6.53125 -8.234375 C 6.445312 -8.234375 6.316406 -8.253906 6.140625 -8.296875 C 5.960938 -8.335938 5.765625 -8.359375 5.546875 -8.359375 C 5.234375 -8.359375 4.953125 -8.3125 4.703125 -8.21875 C 4.460938 -8.125 4.242188 -7.988281 4.046875 -7.8125 C 3.859375 -7.632812 3.6875 -7.410156 3.53125 -7.140625 C 3.382812 -6.878906 3.25 -6.582031 3.125 -6.25 L 3.125 0 L 1.375 0 L 1.375 -9.890625 L 2.375 -9.890625 C 2.5625 -9.890625 2.691406 -9.851562 2.765625 -9.78125 C 2.835938 -9.707031 2.882812 -9.582031 2.90625 -9.40625 Z M 3.03125 -7.90625"/></g><g id="d"><path d="M 3.203125 -9.890625 L 3.203125 0 L 1.46875 0 L 1.46875 -9.890625 Z M 3.578125 -12.984375 C 3.578125 -12.816406 3.539062 -12.660156 3.46875 -12.515625 C 3.40625 -12.367188 3.316406 -12.238281 3.203125 -12.125 C 3.085938 -12.007812 2.953125 -11.921875 2.796875 -11.859375 C 2.648438 -11.796875 2.492188 -11.765625 2.328125 -11.765625 C 2.148438 -11.765625 1.988281 -11.796875 1.84375 -11.859375 C 1.695312 -11.921875 1.566406 -12.007812 1.453125 -12.125 C 1.347656 -12.238281 1.265625 -12.367188 1.203125 -12.515625 C 1.140625 -12.660156 1.109375 -12.816406 1.109375 -12.984375 C 1.109375 -13.148438 1.140625 -13.3125 1.203125 -13.46875 C 1.265625 -13.625 1.347656 -13.757812 1.453125 -13.875 C 1.566406 -13.988281 1.695312 -14.078125 1.84375 -14.140625 C 1.988281 -14.203125 2.148438 -14.234375 2.328125 -14.234375 C 2.492188 -14.234375 2.648438 -14.203125 2.796875 -14.140625 C 2.953125 -14.078125 3.085938 -13.988281 3.203125 -13.875 C 3.316406 -13.757812 3.40625 -13.625 3.46875 -13.46875 C 3.539062 -13.3125 3.578125 -13.148438 3.578125 -12.984375 Z M 3.578125 -12.984375"/></g><g id="e"><path d="M 6.734375 -4.453125 C 5.929688 -4.421875 5.25 -4.351562 4.6875 -4.25 C 4.125 -4.15625 3.664062 -4.023438 3.3125 -3.859375 C 2.957031 -3.703125 2.695312 -3.507812 2.53125 -3.28125 C 2.375 -3.0625 2.296875 -2.816406 2.296875 -2.546875 C 2.296875 -2.285156 2.335938 -2.0625 2.421875 -1.875 C 2.515625 -1.6875 2.632812 -1.53125 2.78125 -1.40625 C 2.925781 -1.289062 3.097656 -1.203125 3.296875 -1.140625 C 3.492188 -1.085938 3.707031 -1.0625 3.9375 -1.0625 C 4.238281 -1.0625 4.515625 -1.09375 4.765625 -1.15625 C 5.023438 -1.21875 5.265625 -1.304688 5.484375 -1.421875 C 5.710938 -1.535156 5.925781 -1.675781 6.125 -1.84375 C 6.332031 -2.007812 6.535156 -2.195312 6.734375 -2.40625 Z M 1.125 -8.484375 C 1.664062 -9.015625 2.25 -9.410156 2.875 -9.671875 C 3.507812 -9.929688 4.210938 -10.0625 4.984375 -10.0625 C 5.535156 -10.0625 6.023438 -9.96875 6.453125 -9.78125 C 6.890625 -9.601562 7.253906 -9.347656 7.546875 -9.015625 C 7.835938 -8.691406 8.054688 -8.300781 8.203125 -7.84375 C 8.359375 -7.382812 8.4375 -6.878906 8.4375 -6.328125 L 8.4375 0 L 7.65625 0 C 7.488281 0 7.359375 -0.0234375 7.265625 -0.078125 C 7.179688 -0.140625 7.113281 -0.25 7.0625 -0.40625 L 6.859375 -1.34375 C 6.597656 -1.101562 6.34375 -0.890625 6.09375 -0.703125 C 5.851562 -0.515625 5.59375 -0.359375 5.3125 -0.234375 C 5.039062 -0.109375 4.75 -0.015625 4.4375 0.046875 C 4.132812 0.117188 3.796875 0.15625 3.421875 0.15625 C 3.035156 0.15625 2.671875 0.101562 2.328125 0 C 1.992188 -0.113281 1.703125 -0.273438 1.453125 -0.484375 C 1.203125 -0.703125 1.003906 -0.972656 0.859375 -1.296875 C 0.710938 -1.628906 0.640625 -2.019531 0.640625 -2.46875 C 0.640625 -2.851562 0.742188 -3.226562 0.953125 -3.59375 C 1.171875 -3.957031 1.519531 -4.273438 2 -4.546875 C 2.476562 -4.828125 3.101562 -5.054688 3.875 -5.234375 C 4.65625 -5.421875 5.609375 -5.523438 6.734375 -5.546875 L 6.734375 -6.328125 C 6.734375 -7.085938 6.566406 -7.664062 6.234375 -8.0625 C 5.898438 -8.457031 5.414062 -8.65625 4.78125 -8.65625 C 4.351562 -8.65625 3.992188 -8.597656 3.703125 -8.484375 C 3.410156 -8.378906 3.160156 -8.257812 2.953125 -8.125 C 2.742188 -8 2.5625 -7.878906 2.40625 -7.765625 C 2.25 -7.660156 2.097656 -7.609375 1.953125 -7.609375 C 1.835938 -7.609375 1.734375 -7.640625 1.640625 -7.703125 C 1.554688 -7.765625 1.488281 -7.84375 1.4375 -7.9375 Z M 1.125 -8.484375"/></g><g id="f"><path d="M 3.015625 -8.453125 C 3.234375 -8.691406 3.460938 -8.90625 3.703125 -9.09375 C 3.941406 -9.289062 4.195312 -9.457031 4.46875 -9.59375 C 4.738281 -9.738281 5.023438 -9.847656 5.328125 -9.921875 C 5.628906 -10.003906 5.953125 -10.046875 6.296875 -10.046875 C 6.835938 -10.046875 7.316406 -9.953125 7.734375 -9.765625 C 8.148438 -9.585938 8.492188 -9.332031 8.765625 -9 C 9.046875 -8.675781 9.253906 -8.285156 9.390625 -7.828125 C 9.535156 -7.367188 9.609375 -6.859375 9.609375 -6.296875 L 9.609375 0 L 7.859375 0 L 7.859375 -6.296875 C 7.859375 -7.046875 7.6875 -7.625 7.34375 -8.03125 C 7.007812 -8.445312 6.492188 -8.65625 5.796875 -8.65625 C 5.285156 -8.65625 4.804688 -8.53125 4.359375 -8.28125 C 3.910156 -8.03125 3.5 -7.695312 3.125 -7.28125 L 3.125 0 L 1.375 0 L 1.375 -9.890625 L 2.421875 -9.890625 C 2.671875 -9.890625 2.820312 -9.769531 2.875 -9.53125 Z M 3.015625 -8.453125"/></g><g id="h"><path d="M 11.609375 -2.890625 C 11.710938 -2.890625 11.800781 -2.847656 11.875 -2.765625 L 12.625 -1.953125 C 12.050781 -1.285156 11.351562 -0.765625 10.53125 -0.390625 C 9.71875 -0.0234375 8.734375 0.15625 7.578125 0.15625 C 6.578125 0.15625 5.664062 -0.015625 4.84375 -0.359375 C 4.03125 -0.710938 3.332031 -1.203125 2.75 -1.828125 C 2.175781 -2.453125 1.726562 -3.203125 1.40625 -4.078125 C 1.082031 -4.960938 0.921875 -5.929688 0.921875 -6.984375 C 0.921875 -8.035156 1.085938 -9 1.421875 -9.875 C 1.753906 -10.757812 2.222656 -11.515625 2.828125 -12.140625 C 3.429688 -12.773438 4.148438 -13.265625 4.984375 -13.609375 C 5.828125 -13.960938 6.753906 -14.140625 7.765625 -14.140625 C 8.765625 -14.140625 9.644531 -13.976562 10.40625 -13.65625 C 11.164062 -13.34375 11.832031 -12.910156 12.40625 -12.359375 L 11.78125 -11.5 C 11.75 -11.425781 11.703125 -11.367188 11.640625 -11.328125 C 11.578125 -11.285156 11.492188 -11.265625 11.390625 -11.265625 C 11.273438 -11.265625 11.128906 -11.328125 10.953125 -11.453125 C 10.785156 -11.585938 10.566406 -11.734375 10.296875 -11.890625 C 10.023438 -12.046875 9.679688 -12.1875 9.265625 -12.3125 C 8.859375 -12.4375 8.351562 -12.5 7.75 -12.5 C 7.03125 -12.5 6.367188 -12.375 5.765625 -12.125 C 5.171875 -11.875 4.65625 -11.507812 4.21875 -11.03125 C 3.789062 -10.5625 3.457031 -9.984375 3.21875 -9.296875 C 2.976562 -8.617188 2.859375 -7.847656 2.859375 -6.984375 C 2.859375 -6.109375 2.984375 -5.328125 3.234375 -4.640625 C 3.484375 -3.960938 3.820312 -3.390625 4.25 -2.921875 C 4.6875 -2.453125 5.195312 -2.09375 5.78125 -1.84375 C 6.375 -1.59375 7.015625 -1.46875 7.703125 -1.46875 C 8.117188 -1.46875 8.492188 -1.492188 8.828125 -1.546875 C 9.160156 -1.597656 9.46875 -1.675781 9.75 -1.78125 C 10.03125 -1.882812 10.289062 -2.015625 10.53125 -2.171875 C 10.78125 -2.328125 11.023438 -2.515625 11.265625 -2.734375 C 11.378906 -2.835938 11.492188 -2.890625 11.609375 -2.890625 Z M 11.609375 -2.890625"/></g><g id="i"><path d="M 3.171875 -14.375 L 3.171875 0 L 1.4375 0 L 1.4375 -14.375 Z M 3.171875 -14.375"/></g><g id="j"><path d="M 9.84375 -9.890625 L 5.8125 0 L 4.25 0 L 0.21875 -9.890625 L 1.640625 -9.890625 C 1.785156 -9.890625 1.898438 -9.851562 1.984375 -9.78125 C 2.078125 -9.707031 2.140625 -9.625 2.171875 -9.53125 L 4.6875 -3.15625 C 4.757812 -2.914062 4.820312 -2.679688 4.875 -2.453125 C 4.9375 -2.234375 4.992188 -2.007812 5.046875 -1.78125 C 5.097656 -2.007812 5.15625 -2.234375 5.21875 -2.453125 C 5.28125 -2.679688 5.351562 -2.914062 5.4375 -3.15625 L 7.96875 -9.53125 C 8.007812 -9.632812 8.070312 -9.71875 8.15625 -9.78125 C 8.25 -9.851562 8.359375 -9.890625 8.484375 -9.890625 Z M 9.84375 -9.890625"/></g><g id="k"><path d="M 5.546875 -10.046875 C 6.265625 -10.046875 6.910156 -9.921875 7.484375 -9.671875 C 8.066406 -9.429688 8.5625 -9.085938 8.96875 -8.640625 C 9.382812 -8.203125 9.703125 -7.671875 9.921875 -7.046875 C 10.140625 -6.421875 10.25 -5.722656 10.25 -4.953125 C 10.25 -4.171875 10.140625 -3.46875 9.921875 -2.84375 C 9.703125 -2.21875 9.382812 -1.679688 8.96875 -1.234375 C 8.5625 -0.796875 8.066406 -0.457031 7.484375 -0.21875 C 6.910156 0.0195312 6.265625 0.140625 5.546875 0.140625 C 4.816406 0.140625 4.160156 0.0195312 3.578125 -0.21875 C 2.992188 -0.457031 2.492188 -0.796875 2.078125 -1.234375 C 1.671875 -1.679688 1.359375 -2.21875 1.140625 -2.84375 C 0.921875 -3.46875 0.8125 -4.171875 0.8125 -4.953125 C 0.8125 -5.722656 0.921875 -6.421875 1.140625 -7.046875 C 1.359375 -7.671875 1.671875 -8.203125 2.078125 -8.640625 C 2.492188 -9.085938 2.992188 -9.429688 3.578125 -9.671875 C 4.160156 -9.921875 4.816406 -10.046875 5.546875 -10.046875 Z M 5.546875 -1.21875 C 6.515625 -1.21875 7.238281 -1.546875 7.71875 -2.203125 C 8.207031 -2.859375 8.453125 -3.769531 8.453125 -4.9375 C 8.453125 -6.113281 8.207031 -7.03125 7.71875 -7.6875 C 7.238281 -8.34375 6.515625 -8.671875 5.546875 -8.671875 C 5.046875 -8.671875 4.613281 -8.585938 4.25 -8.421875 C 3.882812 -8.253906 3.578125 -8.007812 3.328125 -7.6875 C 3.085938 -7.375 2.90625 -6.984375 2.78125 -6.515625 C 2.664062 -6.046875 2.609375 -5.519531 2.609375 -4.9375 C 2.609375 -3.769531 2.847656 -2.859375 3.328125 -2.203125 C 3.816406 -1.546875 4.554688 -1.21875 5.546875 -1.21875 Z M 5.546875 -1.21875"/></g><g id="l"><path d="M 1.21875 -6.59375 L 6.046875 -6.59375 L 6.046875 -5.109375 L 1.21875 -5.109375 Z M 1.21875 -6.59375"/></g><g id="m"><path d="M 16.328125 -13.984375 L 16.328125 0 L 14.671875 0 L 14.671875 -10.28125 C 14.671875 -10.414062 14.675781 -10.5625 14.6875 -10.71875 C 14.695312 -10.875 14.707031 -11.03125 14.71875 -11.1875 L 9.921875 -2.453125 C 9.773438 -2.160156 9.546875 -2.015625 9.234375 -2.015625 L 8.96875 -2.015625 C 8.664062 -2.015625 8.4375 -2.160156 8.28125 -2.453125 L 3.390625 -11.234375 C 3.421875 -10.890625 3.4375 -10.570312 3.4375 -10.28125 L 3.4375 0 L 1.78125 0 L 1.78125 -13.984375 L 3.1875 -13.984375 C 3.351562 -13.984375 3.476562 -13.96875 3.5625 -13.9375 C 3.65625 -13.90625 3.742188 -13.8125 3.828125 -13.65625 L 8.671875 -5.046875 C 8.742188 -4.898438 8.816406 -4.738281 8.890625 -4.5625 C 8.960938 -4.394531 9.035156 -4.222656 9.109375 -4.046875 C 9.171875 -4.222656 9.238281 -4.394531 9.3125 -4.5625 C 9.382812 -4.738281 9.460938 -4.90625 9.546875 -5.0625 L 14.28125 -13.65625 C 14.363281 -13.8125 14.453125 -13.90625 14.546875 -13.9375 C 14.640625 -13.96875 14.769531 -13.984375 14.9375 -13.984375 Z M 16.328125 -13.984375"/></g><g id="n"><path d="M 4.40625 0.15625 C 3.625 0.15625 3.023438 -0.0625 2.609375 -0.5 C 2.191406 -0.9375 1.984375 -1.5625 1.984375 -2.375 L 1.984375 -8.4375 L 0.796875 -8.4375 C 0.691406 -8.4375 0.601562 -8.460938 0.53125 -8.515625 C 0.457031 -8.578125 0.421875 -8.675781 0.421875 -8.8125 L 0.421875 -9.5 L 2.046875 -9.703125 L 2.4375 -12.765625 C 2.457031 -12.859375 2.5 -12.9375 2.5625 -13 C 2.632812 -13.0625 2.726562 -13.09375 2.84375 -13.09375 L 3.71875 -13.09375 L 3.71875 -9.6875 L 6.578125 -9.6875 L 6.578125 -8.4375 L 3.71875 -8.4375 L 3.71875 -2.5 C 3.71875 -2.082031 3.816406 -1.769531 4.015625 -1.5625 C 4.222656 -1.363281 4.484375 -1.265625 4.796875 -1.265625 C 4.984375 -1.265625 5.140625 -1.289062 5.265625 -1.34375 C 5.398438 -1.394531 5.515625 -1.445312 5.609375 -1.5 C 5.710938 -1.5625 5.796875 -1.613281 5.859375 -1.65625 C 5.929688 -1.707031 5.992188 -1.734375 6.046875 -1.734375 C 6.140625 -1.734375 6.222656 -1.679688 6.296875 -1.578125 L 6.796875 -0.734375 C 6.503906 -0.460938 6.144531 -0.242188 5.71875 -0.078125 C 5.289062 0.078125 4.851562 0.15625 4.40625 0.15625 Z M 4.40625 0.15625"/></g><g id="o"><path d="M 7.140625 -8.25 C 7.054688 -8.113281 6.929688 -8.046875 6.765625 -8.046875 C 6.671875 -8.046875 6.5625 -8.078125 6.4375 -8.140625 C 6.3125 -8.210938 6.160156 -8.289062 5.984375 -8.375 C 5.804688 -8.46875 5.59375 -8.550781 5.34375 -8.625 C 5.09375 -8.707031 4.800781 -8.75 4.46875 -8.75 C 4.175781 -8.75 3.910156 -8.707031 3.671875 -8.625 C 3.441406 -8.550781 3.242188 -8.445312 3.078125 -8.3125 C 2.910156 -8.1875 2.78125 -8.035156 2.6875 -7.859375 C 2.601562 -7.691406 2.5625 -7.507812 2.5625 -7.3125 C 2.5625 -7.050781 2.632812 -6.835938 2.78125 -6.671875 C 2.925781 -6.503906 3.117188 -6.359375 3.359375 -6.234375 C 3.609375 -6.109375 3.882812 -6 4.1875 -5.90625 C 4.488281 -5.8125 4.800781 -5.707031 5.125 -5.59375 C 5.445312 -5.488281 5.757812 -5.367188 6.0625 -5.234375 C 6.375 -5.109375 6.648438 -4.945312 6.890625 -4.75 C 7.128906 -4.5625 7.320312 -4.328125 7.46875 -4.046875 C 7.613281 -3.765625 7.6875 -3.425781 7.6875 -3.03125 C 7.6875 -2.570312 7.601562 -2.148438 7.4375 -1.765625 C 7.28125 -1.378906 7.039062 -1.039062 6.71875 -0.75 C 6.40625 -0.46875 6.015625 -0.242188 5.546875 -0.078125 C 5.085938 0.078125 4.554688 0.15625 3.953125 0.15625 C 3.265625 0.15625 2.640625 0.046875 2.078125 -0.171875 C 1.515625 -0.398438 1.039062 -0.691406 0.65625 -1.046875 L 1.0625 -1.703125 C 1.113281 -1.785156 1.175781 -1.847656 1.25 -1.890625 C 1.320312 -1.941406 1.410156 -1.96875 1.515625 -1.96875 C 1.640625 -1.96875 1.765625 -1.921875 1.890625 -1.828125 C 2.023438 -1.742188 2.179688 -1.644531 2.359375 -1.53125 C 2.546875 -1.414062 2.769531 -1.3125 3.03125 -1.21875 C 3.300781 -1.132812 3.640625 -1.09375 4.046875 -1.09375 C 4.378906 -1.09375 4.671875 -1.132812 4.921875 -1.21875 C 5.179688 -1.3125 5.394531 -1.429688 5.5625 -1.578125 C 5.726562 -1.734375 5.851562 -1.90625 5.9375 -2.09375 C 6.019531 -2.289062 6.0625 -2.5 6.0625 -2.71875 C 6.0625 -2.988281 5.988281 -3.210938 5.84375 -3.390625 C 5.695312 -3.578125 5.5 -3.734375 5.25 -3.859375 C 5.007812 -3.984375 4.734375 -4.09375 4.421875 -4.1875 C 4.117188 -4.28125 3.804688 -4.378906 3.484375 -4.484375 C 3.160156 -4.585938 2.84375 -4.707031 2.53125 -4.84375 C 2.226562 -4.976562 1.957031 -5.144531 1.71875 -5.34375 C 1.476562 -5.550781 1.285156 -5.800781 1.140625 -6.09375 C 0.992188 -6.382812 0.921875 -6.742188 0.921875 -7.171875 C 0.921875 -7.546875 1 -7.90625 1.15625 -8.25 C 1.3125 -8.601562 1.535156 -8.910156 1.828125 -9.171875 C 2.128906 -9.441406 2.5 -9.65625 2.9375 -9.8125 C 3.375 -9.96875 3.875 -10.046875 4.4375 -10.046875 C 5.082031 -10.046875 5.660156 -9.941406 6.171875 -9.734375 C 6.691406 -9.523438 7.140625 -9.242188 7.515625 -8.890625 Z M 7.140625 -8.25"/></g><g id="p"><path d="M 2.0625 -6.96875 L 2.0625 -4.234375 L 5.28125 -4.234375 L 5.28125 -3.375 L 2.0625 -3.375 L 2.0625 0 L 1 0 L 1 -7.84375 L 5.828125 -7.84375 L 5.828125 -6.96875 Z M 2.0625 -6.96875"/></g><g id="q"><path d="M 5.328125 -5.546875 L 5.328125 0 L 4.75 0 C 4.613281 0 4.523438 -0.0664062 4.484375 -0.203125 L 4.40625 -0.796875 C 4.164062 -0.535156 3.894531 -0.320312 3.59375 -0.15625 C 3.300781 0.0078125 2.960938 0.09375 2.578125 0.09375 C 2.265625 0.09375 1.992188 0.0390625 1.765625 -0.0625 C 1.535156 -0.164062 1.34375 -0.304688 1.1875 -0.484375 C 1.03125 -0.671875 0.910156 -0.890625 0.828125 -1.140625 C 0.753906 -1.398438 0.71875 -1.6875 0.71875 -2 L 0.71875 -5.546875 L 1.6875 -5.546875 L 1.6875 -2 C 1.6875 -1.582031 1.78125 -1.257812 1.96875 -1.03125 C 2.164062 -0.800781 2.460938 -0.6875 2.859375 -0.6875 C 3.140625 -0.6875 3.40625 -0.753906 3.65625 -0.890625 C 3.90625 -1.023438 4.140625 -1.210938 4.359375 -1.453125 L 4.359375 -5.546875 Z M 5.328125 -5.546875"/></g><g id="r"><path d="M 1.78125 -8.0625 L 1.78125 0 L 0.796875 0 L 0.796875 -8.0625 Z M 1.78125 -8.0625"/></g><g id="s"><path d="M 0.6875 -3.6875 L 3.390625 -3.6875 L 3.390625 -2.859375 L 0.6875 -2.859375 Z M 0.6875 -3.6875"/></g><g id="t"><path d="M 5.015625 -6.609375 C 4.972656 -6.554688 4.929688 -6.515625 4.890625 -6.484375 C 4.859375 -6.460938 4.816406 -6.453125 4.765625 -6.453125 C 4.703125 -6.453125 4.628906 -6.484375 4.546875 -6.546875 C 4.460938 -6.609375 4.359375 -6.675781 4.234375 -6.75 C 4.109375 -6.820312 3.957031 -6.890625 3.78125 -6.953125 C 3.601562 -7.015625 3.390625 -7.046875 3.140625 -7.046875 C 2.898438 -7.046875 2.6875 -7.015625 2.5 -6.953125 C 2.320312 -6.890625 2.171875 -6.800781 2.046875 -6.6875 C 1.929688 -6.582031 1.84375 -6.453125 1.78125 -6.296875 C 1.71875 -6.148438 1.6875 -5.992188 1.6875 -5.828125 C 1.6875 -5.609375 1.738281 -5.425781 1.84375 -5.28125 C 1.945312 -5.132812 2.085938 -5.007812 2.265625 -4.90625 C 2.441406 -4.8125 2.640625 -4.722656 2.859375 -4.640625 C 3.085938 -4.566406 3.320312 -4.488281 3.5625 -4.40625 C 3.800781 -4.332031 4.03125 -4.242188 4.25 -4.140625 C 4.476562 -4.046875 4.679688 -3.921875 4.859375 -3.765625 C 5.035156 -3.609375 5.175781 -3.414062 5.28125 -3.1875 C 5.382812 -2.96875 5.4375 -2.695312 5.4375 -2.375 C 5.4375 -2.03125 5.378906 -1.707031 5.265625 -1.40625 C 5.148438 -1.113281 4.976562 -0.851562 4.75 -0.625 C 4.53125 -0.40625 4.253906 -0.226562 3.921875 -0.09375 C 3.597656 0.03125 3.226562 0.09375 2.8125 0.09375 C 2.300781 0.09375 1.835938 0 1.421875 -0.1875 C 1.003906 -0.375 0.648438 -0.625 0.359375 -0.9375 L 0.671875 -1.4375 C 0.703125 -1.476562 0.738281 -1.507812 0.78125 -1.53125 C 0.820312 -1.5625 0.863281 -1.578125 0.90625 -1.578125 C 0.957031 -1.578125 1.015625 -1.554688 1.078125 -1.515625 C 1.140625 -1.484375 1.207031 -1.4375 1.28125 -1.375 C 1.351562 -1.320312 1.4375 -1.257812 1.53125 -1.1875 C 1.632812 -1.113281 1.75 -1.046875 1.875 -0.984375 C 2 -0.929688 2.140625 -0.882812 2.296875 -0.84375 C 2.460938 -0.8125 2.644531 -0.796875 2.84375 -0.796875 C 3.101562 -0.796875 3.328125 -0.828125 3.515625 -0.890625 C 3.710938 -0.960938 3.878906 -1.0625 4.015625 -1.1875 C 4.160156 -1.3125 4.269531 -1.460938 4.34375 -1.640625 C 4.414062 -1.816406 4.453125 -2.007812 4.453125 -2.21875 C 4.453125 -2.457031 4.394531 -2.648438 4.28125 -2.796875 C 4.175781 -2.953125 4.035156 -3.082031 3.859375 -3.1875 C 3.679688 -3.289062 3.476562 -3.378906 3.25 -3.453125 C 3.03125 -3.523438 2.800781 -3.597656 2.5625 -3.671875 C 2.332031 -3.742188 2.101562 -3.828125 1.875 -3.921875 C 1.65625 -4.023438 1.457031 -4.15625 1.28125 -4.3125 C 1.101562 -4.46875 0.957031 -4.660156 0.84375 -4.890625 C 0.738281 -5.128906 0.6875 -5.421875 0.6875 -5.765625 C 0.6875 -6.046875 0.738281 -6.316406 0.84375 -6.578125 C 0.957031 -6.835938 1.117188 -7.066406 1.328125 -7.265625 C 1.535156 -7.460938 1.785156 -7.617188 2.078125 -7.734375 C 2.378906 -7.859375 2.726562 -7.921875 3.125 -7.921875 C 3.5625 -7.921875 3.957031 -7.851562 4.3125 -7.71875 C 4.675781 -7.582031 4.992188 -7.378906 5.265625 -7.109375 Z M 5.015625 -6.609375"/></g><g id="u"><path d="M 2.46875 0.09375 C 2.03125 0.09375 1.691406 -0.0234375 1.453125 -0.265625 C 1.222656 -0.515625 1.109375 -0.867188 1.109375 -1.328125 L 1.109375 -4.71875 L 0.4375 -4.71875 C 0.382812 -4.71875 0.335938 -4.734375 0.296875 -4.765625 C 0.253906 -4.804688 0.234375 -4.863281 0.234375 -4.9375 L 0.234375 -5.328125 L 1.140625 -5.4375 L 1.375 -7.15625 C 1.382812 -7.207031 1.40625 -7.25 1.4375 -7.28125 C 1.476562 -7.320312 1.53125 -7.34375 1.59375 -7.34375 L 2.078125 -7.34375 L 2.078125 -5.4375 L 3.6875 -5.4375 L 3.6875 -4.71875 L 2.078125 -4.71875 L 2.078125 -1.40625 C 2.078125 -1.164062 2.132812 -0.988281 2.25 -0.875 C 2.363281 -0.769531 2.507812 -0.71875 2.6875 -0.71875 C 2.789062 -0.71875 2.878906 -0.726562 2.953125 -0.75 C 3.023438 -0.78125 3.085938 -0.8125 3.140625 -0.84375 C 3.203125 -0.875 3.25 -0.898438 3.28125 -0.921875 C 3.320312 -0.953125 3.359375 -0.96875 3.390625 -0.96875 C 3.441406 -0.96875 3.488281 -0.9375 3.53125 -0.875 L 3.8125 -0.421875 C 3.644531 -0.265625 3.441406 -0.140625 3.203125 -0.046875 C 2.960938 0.046875 2.71875 0.09375 2.46875 0.09375 Z M 2.46875 0.09375"/></g><g id="v"><path d="M 3.78125 -2.5 C 3.320312 -2.476562 2.9375 -2.4375 2.625 -2.375 C 2.3125 -2.320312 2.054688 -2.25 1.859375 -2.15625 C 1.660156 -2.070312 1.515625 -1.96875 1.421875 -1.84375 C 1.335938 -1.71875 1.296875 -1.578125 1.296875 -1.421875 C 1.296875 -1.273438 1.316406 -1.148438 1.359375 -1.046875 C 1.410156 -0.941406 1.472656 -0.851562 1.546875 -0.78125 C 1.628906 -0.71875 1.726562 -0.671875 1.84375 -0.640625 C 1.957031 -0.609375 2.078125 -0.59375 2.203125 -0.59375 C 2.378906 -0.59375 2.535156 -0.609375 2.671875 -0.640625 C 2.816406 -0.679688 2.953125 -0.734375 3.078125 -0.796875 C 3.203125 -0.859375 3.320312 -0.9375 3.4375 -1.03125 C 3.550781 -1.125 3.664062 -1.226562 3.78125 -1.34375 Z M 0.625 -4.765625 C 0.9375 -5.054688 1.269531 -5.273438 1.625 -5.421875 C 1.976562 -5.566406 2.367188 -5.640625 2.796875 -5.640625 C 3.109375 -5.640625 3.382812 -5.585938 3.625 -5.484375 C 3.863281 -5.378906 4.0625 -5.234375 4.21875 -5.046875 C 4.382812 -4.867188 4.507812 -4.648438 4.59375 -4.390625 C 4.675781 -4.140625 4.71875 -3.859375 4.71875 -3.546875 L 4.71875 0 L 4.296875 0 C 4.203125 0 4.128906 -0.015625 4.078125 -0.046875 C 4.023438 -0.078125 3.984375 -0.140625 3.953125 -0.234375 L 3.84375 -0.75 C 3.695312 -0.613281 3.550781 -0.492188 3.40625 -0.390625 C 3.269531 -0.285156 3.125 -0.195312 2.96875 -0.125 C 2.820312 -0.0625 2.660156 -0.0078125 2.484375 0.03125 C 2.316406 0.0703125 2.128906 0.09375 1.921875 0.09375 C 1.703125 0.09375 1.492188 0.0625 1.296875 0 C 1.109375 -0.0625 0.945312 -0.148438 0.8125 -0.265625 C 0.675781 -0.390625 0.566406 -0.539062 0.484375 -0.71875 C 0.398438 -0.90625 0.359375 -1.128906 0.359375 -1.390625 C 0.359375 -1.609375 0.414062 -1.816406 0.53125 -2.015625 C 0.65625 -2.210938 0.851562 -2.390625 1.125 -2.546875 C 1.394531 -2.710938 1.742188 -2.84375 2.171875 -2.9375 C 2.609375 -3.039062 3.144531 -3.097656 3.78125 -3.109375 L 3.78125 -3.546875 C 3.78125 -3.972656 3.6875 -4.296875 3.5 -4.515625 C 3.3125 -4.734375 3.039062 -4.84375 2.6875 -4.84375 C 2.4375 -4.84375 2.226562 -4.8125 2.0625 -4.75 C 1.90625 -4.695312 1.769531 -4.632812 1.65625 -4.5625 C 1.539062 -4.488281 1.4375 -4.421875 1.34375 -4.359375 C 1.257812 -4.296875 1.175781 -4.265625 1.09375 -4.265625 C 1.03125 -4.265625 0.972656 -4.28125 0.921875 -4.3125 C 0.878906 -4.351562 0.835938 -4.398438 0.796875 -4.453125 Z M 0.625 -4.765625"/></g><g id="w"><path d="M 4.625 -4.5625 C 4.59375 -4.519531 4.5625 -4.488281 4.53125 -4.46875 C 4.507812 -4.445312 4.472656 -4.4375 4.421875 -4.4375 C 4.367188 -4.4375 4.304688 -4.457031 4.234375 -4.5 C 4.171875 -4.539062 4.085938 -4.585938 3.984375 -4.640625 C 3.890625 -4.703125 3.769531 -4.753906 3.625 -4.796875 C 3.488281 -4.847656 3.320312 -4.875 3.125 -4.875 C 2.851562 -4.875 2.613281 -4.820312 2.40625 -4.71875 C 2.195312 -4.625 2.019531 -4.484375 1.875 -4.296875 C 1.738281 -4.117188 1.632812 -3.898438 1.5625 -3.640625 C 1.488281 -3.378906 1.453125 -3.085938 1.453125 -2.765625 C 1.453125 -2.429688 1.488281 -2.132812 1.5625 -1.875 C 1.644531 -1.613281 1.753906 -1.394531 1.890625 -1.21875 C 2.035156 -1.039062 2.207031 -0.90625 2.40625 -0.8125 C 2.601562 -0.71875 2.828125 -0.671875 3.078125 -0.671875 C 3.304688 -0.671875 3.5 -0.695312 3.65625 -0.75 C 3.8125 -0.8125 3.9375 -0.878906 4.03125 -0.953125 C 4.132812 -1.023438 4.21875 -1.085938 4.28125 -1.140625 C 4.351562 -1.191406 4.421875 -1.21875 4.484375 -1.21875 C 4.566406 -1.21875 4.628906 -1.1875 4.671875 -1.125 L 4.953125 -0.78125 C 4.828125 -0.625 4.6875 -0.492188 4.53125 -0.390625 C 4.382812 -0.285156 4.222656 -0.195312 4.046875 -0.125 C 3.867188 -0.0507812 3.679688 0 3.484375 0.03125 C 3.296875 0.0625 3.101562 0.078125 2.90625 0.078125 C 2.550781 0.078125 2.222656 0.015625 1.921875 -0.109375 C 1.628906 -0.242188 1.375 -0.429688 1.15625 -0.671875 C 0.9375 -0.910156 0.765625 -1.207031 0.640625 -1.5625 C 0.515625 -1.914062 0.453125 -2.316406 0.453125 -2.765625 C 0.453125 -3.179688 0.507812 -3.5625 0.625 -3.90625 C 0.738281 -4.257812 0.90625 -4.5625 1.125 -4.8125 C 1.351562 -5.070312 1.628906 -5.269531 1.953125 -5.40625 C 2.273438 -5.550781 2.644531 -5.625 3.0625 -5.625 C 3.445312 -5.625 3.789062 -5.5625 4.09375 -5.4375 C 4.394531 -5.3125 4.660156 -5.132812 4.890625 -4.90625 Z M 4.625 -4.5625"/></g><g id="x"><path d="M 1.75 -8.0625 L 1.75 -3.3125 L 2 -3.3125 C 2.070312 -3.3125 2.132812 -3.320312 2.1875 -3.34375 C 2.238281 -3.363281 2.289062 -3.40625 2.34375 -3.46875 L 4.09375 -5.34375 C 4.144531 -5.40625 4.195312 -5.453125 4.25 -5.484375 C 4.3125 -5.523438 4.390625 -5.546875 4.484375 -5.546875 L 5.359375 -5.546875 L 3.3125 -3.375 C 3.21875 -3.25 3.113281 -3.148438 3 -3.078125 C 3.0625 -3.035156 3.117188 -2.984375 3.171875 -2.921875 C 3.234375 -2.867188 3.285156 -2.804688 3.328125 -2.734375 L 5.5 0 L 4.625 0 C 4.539062 0 4.46875 -0.0078125 4.40625 -0.03125 C 4.351562 -0.0625 4.300781 -0.113281 4.25 -0.1875 L 2.4375 -2.46875 C 2.382812 -2.539062 2.328125 -2.585938 2.265625 -2.609375 C 2.210938 -2.628906 2.132812 -2.640625 2.03125 -2.640625 L 1.75 -2.640625 L 1.75 0 L 0.765625 0 L 0.765625 -8.0625 Z M 1.75 -8.0625"/></g><g id="z"><path d="M 7.796875 -3.921875 C 7.796875 -3.328125 7.703125 -2.789062 7.515625 -2.3125 C 7.328125 -1.832031 7.0625 -1.421875 6.71875 -1.078125 C 6.382812 -0.734375 5.976562 -0.46875 5.5 -0.28125 C 5.03125 -0.09375 4.503906 0 3.921875 0 L 1 0 L 1 -7.84375 L 3.921875 -7.84375 C 4.503906 -7.84375 5.03125 -7.75 5.5 -7.5625 C 5.976562 -7.375 6.382812 -7.101562 6.71875 -6.75 C 7.0625 -6.40625 7.328125 -5.992188 7.515625 -5.515625 C 7.703125 -5.035156 7.796875 -4.503906 7.796875 -3.921875 Z M 6.703125 -3.921875 C 6.703125 -4.398438 6.632812 -4.828125 6.5 -5.203125 C 6.375 -5.585938 6.191406 -5.910156 5.953125 -6.171875 C 5.710938 -6.429688 5.421875 -6.628906 5.078125 -6.765625 C 4.734375 -6.910156 4.347656 -6.984375 3.921875 -6.984375 L 2.0625 -6.984375 L 2.0625 -0.859375 L 3.921875 -0.859375 C 4.347656 -0.859375 4.734375 -0.925781 5.078125 -1.0625 C 5.421875 -1.207031 5.710938 -1.410156 5.953125 -1.671875 C 6.191406 -1.929688 6.375 -2.25 6.5 -2.625 C 6.632812 -3 6.703125 -3.429688 6.703125 -3.921875 Z M 6.703125 -3.921875"/></g><g id="A"><path d="M 4.484375 -3.375 C 4.484375 -3.601562 4.445312 -3.8125 4.375 -4 C 4.3125 -4.1875 4.21875 -4.347656 4.09375 -4.484375 C 3.976562 -4.617188 3.832031 -4.722656 3.65625 -4.796875 C 3.476562 -4.867188 3.28125 -4.90625 3.0625 -4.90625 C 2.59375 -4.90625 2.222656 -4.769531 1.953125 -4.5 C 1.679688 -4.226562 1.515625 -3.851562 1.453125 -3.375 Z M 5.265625 -0.78125 C 5.148438 -0.632812 5.003906 -0.503906 4.828125 -0.390625 C 4.660156 -0.285156 4.484375 -0.195312 4.296875 -0.125 C 4.109375 -0.0625 3.910156 -0.015625 3.703125 0.015625 C 3.492188 0.0546875 3.289062 0.078125 3.09375 0.078125 C 2.707031 0.078125 2.351562 0.015625 2.03125 -0.109375 C 1.707031 -0.242188 1.425781 -0.4375 1.1875 -0.6875 C 0.957031 -0.9375 0.773438 -1.242188 0.640625 -1.609375 C 0.515625 -1.984375 0.453125 -2.40625 0.453125 -2.875 C 0.453125 -3.269531 0.507812 -3.632812 0.625 -3.96875 C 0.75 -4.300781 0.921875 -4.585938 1.140625 -4.828125 C 1.367188 -5.078125 1.640625 -5.269531 1.953125 -5.40625 C 2.273438 -5.550781 2.640625 -5.625 3.046875 -5.625 C 3.367188 -5.625 3.671875 -5.566406 3.953125 -5.453125 C 4.242188 -5.347656 4.488281 -5.191406 4.6875 -4.984375 C 4.894531 -4.773438 5.054688 -4.515625 5.171875 -4.203125 C 5.296875 -3.890625 5.359375 -3.539062 5.359375 -3.15625 C 5.359375 -3 5.335938 -2.894531 5.296875 -2.84375 C 5.265625 -2.789062 5.207031 -2.765625 5.125 -2.765625 L 1.421875 -2.765625 C 1.429688 -2.421875 1.476562 -2.117188 1.5625 -1.859375 C 1.644531 -1.597656 1.765625 -1.378906 1.921875 -1.203125 C 2.078125 -1.035156 2.257812 -0.90625 2.46875 -0.8125 C 2.675781 -0.726562 2.910156 -0.6875 3.171875 -0.6875 C 3.421875 -0.6875 3.632812 -0.710938 3.8125 -0.765625 C 3.988281 -0.828125 4.140625 -0.890625 4.265625 -0.953125 C 4.390625 -1.023438 4.492188 -1.085938 4.578125 -1.140625 C 4.671875 -1.191406 4.75 -1.21875 4.8125 -1.21875 C 4.882812 -1.21875 4.945312 -1.1875 5 -1.125 Z M 5.265625 -0.78125"/></g><g id="B"><path d="M 5.515625 -5.546875 L 3.265625 0 L 2.390625 0 L 0.125 -5.546875 L 0.921875 -5.546875 C 1.003906 -5.546875 1.066406 -5.523438 1.109375 -5.484375 C 1.160156 -5.441406 1.195312 -5.394531 1.21875 -5.34375 L 2.625 -1.765625 C 2.664062 -1.628906 2.703125 -1.5 2.734375 -1.375 C 2.773438 -1.25 2.804688 -1.125 2.828125 -1 C 2.859375 -1.125 2.890625 -1.25 2.921875 -1.375 C 2.953125 -1.5 2.992188 -1.628906 3.046875 -1.765625 L 4.46875 -5.34375 C 4.488281 -5.394531 4.523438 -5.441406 4.578125 -5.484375 C 4.628906 -5.523438 4.691406 -5.546875 4.765625 -5.546875 Z M 5.515625 -5.546875"/></g><g id="C"><path d="M 3.109375 -5.625 C 3.515625 -5.625 3.878906 -5.554688 4.203125 -5.421875 C 4.523438 -5.285156 4.800781 -5.09375 5.03125 -4.84375 C 5.257812 -4.601562 5.4375 -4.304688 5.5625 -3.953125 C 5.6875 -3.597656 5.75 -3.203125 5.75 -2.765625 C 5.75 -2.328125 5.6875 -1.929688 5.5625 -1.578125 C 5.4375 -1.234375 5.257812 -0.9375 5.03125 -0.6875 C 4.800781 -0.445312 4.523438 -0.257812 4.203125 -0.125 C 3.878906 0.0078125 3.515625 0.078125 3.109375 0.078125 C 2.703125 0.078125 2.332031 0.0078125 2 -0.125 C 1.675781 -0.257812 1.398438 -0.445312 1.171875 -0.6875 C 0.941406 -0.9375 0.765625 -1.234375 0.640625 -1.578125 C 0.515625 -1.929688 0.453125 -2.328125 0.453125 -2.765625 C 0.453125 -3.203125 0.515625 -3.597656 0.640625 -3.953125 C 0.765625 -4.304688 0.941406 -4.601562 1.171875 -4.84375 C 1.398438 -5.09375 1.675781 -5.285156 2 -5.421875 C 2.332031 -5.554688 2.703125 -5.625 3.109375 -5.625 Z M 3.109375 -0.6875 C 3.648438 -0.6875 4.054688 -0.867188 4.328125 -1.234375 C 4.597656 -1.597656 4.734375 -2.109375 4.734375 -2.765625 C 4.734375 -3.421875 4.597656 -3.929688 4.328125 -4.296875 C 4.054688 -4.671875 3.648438 -4.859375 3.109375 -4.859375 C 2.828125 -4.859375 2.582031 -4.8125 2.375 -4.71875 C 2.175781 -4.625 2.003906 -4.488281 1.859375 -4.3125 C 1.722656 -4.132812 1.617188 -3.914062 1.546875 -3.65625 C 1.484375 -3.394531 1.453125 -3.097656 1.453125 -2.765625 C 1.453125 -2.109375 1.585938 -1.597656 1.859375 -1.234375 C 2.140625 -0.867188 2.554688 -0.6875 3.109375 -0.6875 Z M 3.109375 -0.6875"/></g><g id="D"><path d="M 1.75 -1.328125 C 1.925781 -1.085938 2.117188 -0.914062 2.328125 -0.8125 C 2.546875 -0.71875 2.785156 -0.671875 3.046875 -0.671875 C 3.566406 -0.671875 3.960938 -0.851562 4.234375 -1.21875 C 4.515625 -1.59375 4.65625 -2.125 4.65625 -2.8125 C 4.65625 -3.164062 4.625 -3.472656 4.5625 -3.734375 C 4.5 -3.992188 4.40625 -4.207031 4.28125 -4.375 C 4.164062 -4.539062 4.019531 -4.660156 3.84375 -4.734375 C 3.664062 -4.804688 3.46875 -4.84375 3.25 -4.84375 C 2.925781 -4.84375 2.644531 -4.769531 2.40625 -4.625 C 2.164062 -4.476562 1.945312 -4.273438 1.75 -4.015625 Z M 1.703125 -4.6875 C 1.929688 -4.96875 2.195312 -5.195312 2.5 -5.375 C 2.8125 -5.550781 3.164062 -5.640625 3.5625 -5.640625 C 3.882812 -5.640625 4.171875 -5.578125 4.421875 -5.453125 C 4.679688 -5.328125 4.898438 -5.144531 5.078125 -4.90625 C 5.265625 -4.675781 5.40625 -4.382812 5.5 -4.03125 C 5.601562 -3.675781 5.65625 -3.269531 5.65625 -2.8125 C 5.65625 -2.394531 5.597656 -2.007812 5.484375 -1.65625 C 5.378906 -1.3125 5.222656 -1.007812 5.015625 -0.75 C 4.816406 -0.488281 4.566406 -0.285156 4.265625 -0.140625 C 3.972656 0.00390625 3.640625 0.078125 3.265625 0.078125 C 2.921875 0.078125 2.628906 0.0195312 2.390625 -0.09375 C 2.148438 -0.207031 1.9375 -0.367188 1.75 -0.578125 L 1.75 1.875 L 0.765625 1.875 L 0.765625 -5.546875 L 1.359375 -5.546875 C 1.492188 -5.546875 1.578125 -5.476562 1.609375 -5.34375 Z M 1.703125 -4.6875"/></g><g id="E"><path d="M 1.703125 -4.4375 C 1.867188 -4.8125 2.078125 -5.101562 2.328125 -5.3125 C 2.585938 -5.53125 2.90625 -5.640625 3.28125 -5.640625 C 3.394531 -5.640625 3.503906 -5.625 3.609375 -5.59375 C 3.722656 -5.570312 3.820312 -5.535156 3.90625 -5.484375 L 3.828125 -4.75 C 3.804688 -4.65625 3.753906 -4.609375 3.671875 -4.609375 C 3.617188 -4.609375 3.539062 -4.617188 3.4375 -4.640625 C 3.34375 -4.671875 3.234375 -4.6875 3.109375 -4.6875 C 2.929688 -4.6875 2.773438 -4.660156 2.640625 -4.609375 C 2.503906 -4.554688 2.378906 -4.476562 2.265625 -4.375 C 2.160156 -4.28125 2.066406 -4.15625 1.984375 -4 C 1.898438 -3.851562 1.820312 -3.6875 1.75 -3.5 L 1.75 0 L 0.765625 0 L 0.765625 -5.546875 L 1.328125 -5.546875 C 1.429688 -5.546875 1.503906 -5.523438 1.546875 -5.484375 C 1.585938 -5.441406 1.613281 -5.367188 1.625 -5.265625 Z M 1.703125 -4.4375"/></g></defs><g fill="#E3E4DB"><use x="1.559" y="28.297" xmlns:xlink="http://www.w3.org/1999/xlink" xlink:href="#a" xlink:type="simple" xlink:actuate="onLoad" xlink:show="embed"/></g><g fill="#E3E4DB"><use x="14.943" y="28.297" xmlns:xlink="http://www.w3.org/1999/xlink" xlink:href="#b" xlink:type="simple" xlink:actuate="onLoad" xlink:show="embed"/></g><g fill="#E3E4DB"><use x="26.044" y="28.297" xmlns:xlink="http://www.w3.org/1999/xlink" xlink:href="#c" xlink:type="simple" xlink:actuate="onLoad" xlink:show="embed"/></g><g fill="#E3E4DB"><use x="33.321" y="28.297" xmlns:xlink="http://www.w3.org/1999/xlink" xlink:href="#d" xlink:type="simple" xlink:actuate="onLoad" xlink:show="embed"/></g><g fill="#E3E4DB"><use x="38.179" y="28.297" xmlns:xlink="http://www.w3.org/1999/xlink" xlink:href="#e" xlink:type="simple" xlink:actuate="onLoad" xlink:show="embed"/></g><g fill="#E3E4DB"><use x="48.051" y="28.297" xmlns:xlink="http://www.w3.org/1999/xlink" xlink:href="#f" xlink:type="simple" xlink:actuate="onLoad" xlink:show="embed"/></g><g fill="#E3E4DB"><use x="59.113" y="28.297" xmlns:xlink="http://www.w3.org/1999/xlink" xlink:href="#e" xlink:type="simple" xlink:actuate="onLoad" xlink:show="embed"/></g><g fill="#E3E4DB"><use x="68.985" y="28.297" xmlns:xlink="http://www.w3.org/1999/xlink" xlink:href="#g" xlink:type="simple" xlink:actuate="onLoad" xlink:show="embed"/></g><g fill="#34A0AB"><use x="74.152" y="28.297" xmlns:xlink="http://www.w3.org/1999/xlink" xlink:href="#h" xlink:type="simple" xlink:actuate="onLoad" xlink:show="embed"/></g><g fill="#34A0AB"><use x="87.36" y="28.297" xmlns:xlink="http://www.w3.org/1999/xlink" xlink:href="#e" xlink:type="simple" xlink:actuate="onLoad" xlink:show="embed"/></g><g fill="#34A0AB"><use x="97.232" y="28.297" xmlns:xlink="http://www.w3.org/1999/xlink" xlink:href="#i" xlink:type="simple" xlink:actuate="onLoad" xlink:show="embed"/></g><g fill="#34A0AB"><use x="102.012" y="28.297" xmlns:xlink="http://www.w3.org/1999/xlink" xlink:href="#j" xlink:type="simple" xlink:actuate="onLoad" xlink:show="embed"/></g><g fill="#34A0AB"><use x="112.254" y="28.297" xmlns:xlink="http://www.w3.org/1999/xlink" xlink:href="#k" xlink:type="simple" xlink:actuate="onLoad" xlink:show="embed"/></g><g fill="#34A0AB"><use x="123.492" y="28.297" xmlns:xlink="http://www.w3.org/1999/xlink" xlink:href="#l" xlink:type="simple" xlink:actuate="onLoad" xlink:show="embed"/></g><g fill="#34A0AB"><use x="130.915" y="28.297" xmlns:xlink="http://www.w3.org/1999/xlink" xlink:href="#m" xlink:type="simple" xlink:actuate="onLoad" xlink:show="embed"/></g><g fill="#34A0AB"><use x="149.206" y="28.297" xmlns:xlink="http://www.w3.org/1999/xlink" xlink:href="#e" xlink:type="simple" xlink:actuate="onLoad" xlink:show="embed"/></g><g fill="#34A0AB"><use x="159.078" y="28.297" xmlns:xlink="http://www.w3.org/1999/xlink" xlink:href="#n" xlink:type="simple" xlink:actuate="onLoad" xlink:show="embed"/></g><g fill="#34A0AB"><use x="166.248" y="28.297" xmlns:xlink="http://www.w3.org/1999/xlink" xlink:href="#k" xlink:type="simple" xlink:actuate="onLoad" xlink:show="embed"/></g><g fill="#34A0AB"><use x="177.485" y="28.297" xmlns:xlink="http://www.w3.org/1999/xlink" xlink:href="#o" xlink:type="simple" xlink:actuate="onLoad" xlink:show="embed"/></g><g fill="#E3E4DB"><use x="3.044" y="41.958" xmlns:xlink="http://www.w3.org/1999/xlink" xlink:href="#p" xlink:type="simple" xlink:actuate="onLoad" xlink:show="embed"/></g><g fill="#E3E4DB"><use x="13.484" y="41.958" xmlns:xlink="http://www.w3.org/1999/xlink" xlink:href="#q" xlink:type="simple" xlink:actuate="onLoad" xlink:show="embed"/></g><g fill="#E3E4DB"><use x="23.838" y="41.958" xmlns:xlink="http://www.w3.org/1999/xlink" xlink:href="#r" xlink:type="simple" xlink:actuate="onLoad" xlink:show="embed"/></g><g fill="#E3E4DB"><use x="30.675" y="41.958" xmlns:xlink="http://www.w3.org/1999/xlink" xlink:href="#r" xlink:type="simple" xlink:actuate="onLoad" xlink:show="embed"/></g><g fill="#E3E4DB"><use x="37.513" y="41.958" xmlns:xlink="http://www.w3.org/1999/xlink" xlink:href="#s" xlink:type="simple" xlink:actuate="onLoad" xlink:show="embed"/></g><g fill="#E3E4DB"><use x="45.833" y="41.958" xmlns:xlink="http://www.w3.org/1999/xlink" xlink:href="#t" xlink:type="simple" xlink:actuate="onLoad" xlink:show="embed"/></g><g fill="#E3E4DB"><use x="56.022" y="41.958" xmlns:xlink="http://www.w3.org/1999/xlink" xlink:href="#u" xlink:type="simple" xlink:actuate="onLoad" xlink:show="embed"/></g><g fill="#E3E4DB"><use x="64.2" y="41.958" xmlns:xlink="http://www.w3.org/1999/xlink" xlink:href="#v" xlink:type="simple" xlink:actuate="onLoad" xlink:show="embed"/></g><g fill="#E3E4DB"><use x="73.891" y="41.958" xmlns:xlink="http://www.w3.org/1999/xlink" xlink:href="#w" xlink:type="simple" xlink:actuate="onLoad" xlink:show="embed"/></g><g fill="#E3E4DB"><use x="83.37" y="41.958" xmlns:xlink="http://www.w3.org/1999/xlink" xlink:href="#x" xlink:type="simple" xlink:actuate="onLoad" xlink:show="embed"/></g><g fill="#E3E4DB"><use x="93.182" y="41.958" xmlns:xlink="http://www.w3.org/1999/xlink" xlink:href="#y" xlink:type="simple" xlink:actuate="onLoad" xlink:show="embed"/></g><g fill="#E3E4DB"><use x="100.238" y="41.958" xmlns:xlink="http://www.w3.org/1999/xlink" xlink:href="#z" xlink:type="simple" xlink:actuate="onLoad" xlink:show="embed"/></g><g fill="#E3E4DB"><use x="112.811" y="41.958" xmlns:xlink="http://www.w3.org/1999/xlink" xlink:href="#A" xlink:type="simple" xlink:actuate="onLoad" xlink:show="embed"/></g><g fill="#E3E4DB"><use x="122.842" y="41.958" xmlns:xlink="http://www.w3.org/1999/xlink" xlink:href="#B" xlink:type="simple" xlink:actuate="onLoad" xlink:show="embed"/></g><g fill="#E3E4DB"><use x="132.742" y="41.958" xmlns:xlink="http://www.w3.org/1999/xlink" xlink:href="#A" xlink:type="simple" xlink:actuate="onLoad" xlink:show="embed"/></g><g fill="#E3E4DB"><use x="142.772" y="41.958" xmlns:xlink="http://www.w3.org/1999/xlink" xlink:href="#r" xlink:type="simple" xlink:actuate="onLoad" xlink:show="embed"/></g><g fill="#E3E4DB"><use x="149.61" y="41.958" xmlns:xlink="http://www.w3.org/1999/xlink" xlink:href="#C" xlink:type="simple" xlink:actuate="onLoad" xlink:show="embed"/></g><g fill="#E3E4DB"><use x="160.067" y="41.958" xmlns:xlink="http://www.w3.org/1999/xlink" xlink:href="#D" xlink:type="simple" xlink:actuate="onLoad" xlink:show="embed"/></g><g fill="#E3E4DB"><use x="170.453" y="41.958" xmlns:xlink="http://www.w3.org/1999/xlink" xlink:href="#A" xlink:type="simple" xlink:actuate="onLoad" xlink:show="embed"/></g><g fill="#E3E4DB"><use x="180.484" y="41.958" xmlns:xlink="http://www.w3.org/1999/xlink" xlink:href="#E" xlink:type="simple" xlink:actuate="onLoad" xlink:show="embed"/></g></svg>